<?xml version="1.0" standalone="no"?>
<!DOCTYPE svg PUBLIC "-//W3C//DTD SVG 20010904//EN"
 "http://www.w3.org/TR/2001/REC-SVG-20010904/DTD/svg10.dtd">
<svg version="1.0" xmlns="http://www.w3.org/2000/svg"
 width="400.000000pt" height="400.000000pt" viewBox="0 0 400.000000 400.000000"
 preserveAspectRatio="xMidYMid meet">
<metadata>
Created by potrace 1.14, written by Peter Selinger 2001-2017
</metadata>
<g transform="translate(0.000000,400.000000) scale(0.100000,-0.100000)"
fill="#000000" stroke="none">
<path d="M1786 3989 c-369 -39 -752 -199 -1046 -436 -89 -72 -257 -243 -321
-328 -270 -353 -419 -788 -419 -1225 0 -453 161 -906 447 -1260 72 -89 243
-257 328 -321 353 -270 788 -419 1225 -419 437 0 872 149 1225 419 85 64 256
232 328 321 583 722 595 1743 28 2485 -64 85 -232 256 -321 328 -411 332 -950
491 -1474 436z m-141 -994 c178 -428 346 -819 354 -828 4 -4 95 198 201 450
107 252 213 503 236 558 40 94 43 98 53 74 15 -41 116 -282 431 -1024 158
-374 321 -759 362 -855 l74 -175 117 -3 117 -3 0 -35 c0 -53 -21 -58 -290 -65
-129 -3 -247 -9 -262 -14 l-28 -7 0 61 0 60 108 3 108 3 -162 384 c-124 294
-168 388 -186 397 -33 19 -756 20 -781 2 -15 -12 -2 -49 146 -398 l163 -385
117 -3 117 -3 0 -35 c0 -53 -21 -58 -290 -65 -129 -3 -247 -9 -262 -14 l-28
-7 0 61 0 60 108 3 109 3 -109 255 c-59 140 -120 286 -135 323 l-27 68 -23
-23 c-34 -35 -245 -532 -247 -586 l-3 -42 110 0 c109 0 109 0 103 -23 -3 -12
-6 -27 -6 -34 0 -31 -46 -38 -285 -44 -132 -3 -252 -9 -267 -14 l-28 -7 0 61
0 61 118 0 117 0 160 377 c88 207 161 382 163 390 2 7 -5 13 -17 13 -11 0 -23
4 -26 10 -10 16 -757 13 -778 -2 -26 -20 -309 -696 -311 -745 l-3 -43 110 0
c109 0 109 0 103 -22 -3 -13 -6 -28 -6 -35 0 -31 -46 -38 -285 -44 -132 -3
-252 -9 -267 -14 l-28 -7 0 61 0 61 118 0 117 0 357 843 c197 463 395 931 440
1039 46 108 86 194 89 190 3 -4 54 -124 114 -267z"/>
<path d="M1501 2941 c-33 -51 -332 -773 -327 -788 3 -7 1 -24 -4 -38 l-10 -25
366 0 c362 0 365 0 359 20 -4 11 -80 196 -170 410 -90 214 -166 403 -170 420
-9 42 -17 43 -44 1z"/>
<path d="M2451 2941 c-33 -51 -332 -773 -327 -788 3 -7 1 -24 -4 -38 l-10 -25
366 0 c362 0 365 0 359 20 -4 11 -80 196 -170 410 -90 214 -166 403 -170 420
-9 42 -17 43 -44 1z"/>
</g>
</svg>
